<svg xmlns="http://www.w3.org/2000/svg" version="1.1" xmlns:xlink="http://www.w3.org/1999/xlink" xmlns:svgjs="http://svgjs.com/svgjs" width="1920" height="1080" preserveAspectRatio="none" viewBox="0 0 1920 1080"><g mask="url(&quot;#SvgjsMask1078&quot;)" fill="none"><rect width="1920" height="1080" x="0" y="0" fill="rgba(24, 24, 27, 1)"></rect><path d="M704 39L703 -298" stroke-width="10" stroke="url(#SvgjsLinearGradient1079)" stroke-linecap="round" class="Up"></path><path d="M505 271L504 826" stroke-width="8" stroke="url(#SvgjsLinearGradient1080)" stroke-linecap="round" class="Down"></path><path d="M845 372L844 819" stroke-width="6" stroke="url(#SvgjsLinearGradient1079)" stroke-linecap="round" class="Up"></path><path d="M933 17L932 759" stroke-width="8" stroke="url(#SvgjsLinearGradient1079)" stroke-linecap="round" class="Up"></path><path d="M1440 881L1439 1434" stroke-width="6" stroke="url(#SvgjsLinearGradient1079)" stroke-linecap="round" class="Up"></path><path d="M767 697L766 1197" stroke-width="10" stroke="url(#SvgjsLinearGradient1079)" stroke-linecap="round" class="Up"></path><path d="M1632 858L1631 1577" stroke-width="8" stroke="url(#SvgjsLinearGradient1079)" stroke-linecap="round" class="Up"></path><path d="M1337 725L1336 1482" stroke-width="6" stroke="url(#SvgjsLinearGradient1080)" stroke-linecap="round" class="Down"></path><path d="M935 833L934 1111" stroke-width="10" stroke="url(#SvgjsLinearGradient1080)" stroke-linecap="round" class="Down"></path><path d="M1094 434L1093 1164" stroke-width="8" stroke="url(#SvgjsLinearGradient1079)" stroke-linecap="round" class="Up"></path><path d="M1050 431L1049 1026" stroke-width="6" stroke="url(#SvgjsLinearGradient1080)" stroke-linecap="round" class="Down"></path><path d="M1105 615L1104 1043" stroke-width="10" stroke="url(#SvgjsLinearGradient1080)" stroke-linecap="round" class="Down"></path><path d="M459 756L458 33" stroke-width="6" stroke="url(#SvgjsLinearGradient1080)" stroke-linecap="round" class="Down"></path><path d="M1085 651L1084 1431" stroke-width="8" stroke="url(#SvgjsLinearGradient1080)" stroke-linecap="round" class="Down"></path><path d="M323 1046L322 1700" stroke-width="10" stroke="url(#SvgjsLinearGradient1079)" stroke-linecap="round" class="Up"></path><path d="M1262 929L1261 1214" stroke-width="6" stroke="url(#SvgjsLinearGradient1079)" stroke-linecap="round" class="Up"></path><path d="M750 168L749 857" stroke-width="6" stroke="url(#SvgjsLinearGradient1079)" stroke-linecap="round" class="Up"></path><path d="M67 161L66 -430" stroke-width="8" stroke="url(#SvgjsLinearGradient1080)" stroke-linecap="round" class="Down"></path><path d="M473 695L472 307" stroke-width="6" stroke="url(#SvgjsLinearGradient1079)" stroke-linecap="round" class="Up"></path><path d="M1913 77L1912 -422" stroke-width="10" stroke="url(#SvgjsLinearGradient1080)" stroke-linecap="round" class="Down"></path><path d="M1102 610L1101 -115" stroke-width="6" stroke="url(#SvgjsLinearGradient1080)" stroke-linecap="round" class="Down"></path><path d="M1223 496L1222 103" stroke-width="8" stroke="url(#SvgjsLinearGradient1079)" stroke-linecap="round" class="Up"></path><path d="M274 63L273 417" stroke-width="6" stroke="url(#SvgjsLinearGradient1080)" stroke-linecap="round" class="Down"></path><path d="M977 93L976 -682" stroke-width="10" stroke="url(#SvgjsLinearGradient1080)" stroke-linecap="round" class="Down"></path><path d="M1068 45L1067 558" stroke-width="8" stroke="url(#SvgjsLinearGradient1079)" stroke-linecap="round" class="Up"></path><path d="M1747 384L1746 723" stroke-width="10" stroke="url(#SvgjsLinearGradient1079)" stroke-linecap="round" class="Up"></path><path d="M1331 585L1330 924" stroke-width="10" stroke="url(#SvgjsLinearGradient1080)" stroke-linecap="round" class="Down"></path><path d="M627 780L626 282" stroke-width="6" stroke="url(#SvgjsLinearGradient1080)" stroke-linecap="round" class="Down"></path><path d="M1679 794L1678 468" stroke-width="10" stroke="url(#SvgjsLinearGradient1079)" stroke-linecap="round" class="Up"></path><path d="M174 592L173 65" stroke-width="8" stroke="url(#SvgjsLinearGradient1080)" stroke-linecap="round" class="Down"></path><path d="M1592 116L1591 624" stroke-width="10" stroke="url(#SvgjsLinearGradient1079)" stroke-linecap="round" class="Up"></path><path d="M1663 567L1662 -118" stroke-width="8" stroke="url(#SvgjsLinearGradient1080)" stroke-linecap="round" class="Down"></path><path d="M466 762L465 1134" stroke-width="8" stroke="url(#SvgjsLinearGradient1080)" stroke-linecap="round" class="Down"></path><path d="M1681 282L1680 -141" stroke-width="8" stroke="url(#SvgjsLinearGradient1080)" stroke-linecap="round" class="Down"></path><path d="M1401 533L1400 -14" stroke-width="8" stroke="url(#SvgjsLinearGradient1080)" stroke-linecap="round" class="Down"></path><path d="M1694 588L1693 1307" stroke-width="6" stroke="url(#SvgjsLinearGradient1079)" stroke-linecap="round" class="Up"></path><path d="M102 742L101 270" stroke-width="8" stroke="url(#SvgjsLinearGradient1079)" stroke-linecap="round" class="Up"></path><path d="M1865 264L1864 750" stroke-width="6" stroke="url(#SvgjsLinearGradient1080)" stroke-linecap="round" class="Down"></path><path d="M1244 240L1243 607" stroke-width="6" stroke="url(#SvgjsLinearGradient1080)" stroke-linecap="round" class="Down"></path><path d="M496 846L495 1179" stroke-width="8" stroke="url(#SvgjsLinearGradient1080)" stroke-linecap="round" class="Down"></path><path d="M253 933L252 332" stroke-width="10" stroke="url(#SvgjsLinearGradient1079)" stroke-linecap="round" class="Up"></path><path d="M836 541L835 -204" stroke-width="10" stroke="url(#SvgjsLinearGradient1079)" stroke-linecap="round" class="Up"></path><path d="M850 610L849 326" stroke-width="8" stroke="url(#SvgjsLinearGradient1079)" stroke-linecap="round" class="Up"></path><path d="M921 430L920 -178" stroke-width="6" stroke="url(#SvgjsLinearGradient1079)" stroke-linecap="round" class="Up"></path><path d="M1847 521L1846 854" stroke-width="6" stroke="url(#SvgjsLinearGradient1079)" stroke-linecap="round" class="Up"></path><path d="M1868 457L1867 187" stroke-width="6" stroke="url(#SvgjsLinearGradient1079)" stroke-linecap="round" class="Up"></path><path d="M1653 427L1652 147" stroke-width="8" stroke="url(#SvgjsLinearGradient1079)" stroke-linecap="round" class="Up"></path><path d="M585 407L584 -216" stroke-width="8" stroke="url(#SvgjsLinearGradient1080)" stroke-linecap="round" class="Down"></path></g><defs><mask id="SvgjsMask1078"><rect width="1920" height="1080" fill="#ffffff"></rect></mask><linearGradient x1="0%" y1="100%" x2="0%" y2="0%" id="SvgjsLinearGradient1079"><stop stop-color="rgba(70, 70, 71, 0)" offset="0"></stop><stop stop-color="rgba(70, 70, 71, 1)" offset="1"></stop></linearGradient><linearGradient x1="0%" y1="0%" x2="0%" y2="100%" id="SvgjsLinearGradient1080"><stop stop-color="rgba(70, 70, 71, 0)" offset="0"></stop><stop stop-color="rgba(70, 70, 71, 1)" offset="1"></stop></linearGradient></defs></svg>